<svg width="50" height="50" viewBox="0 0 50 50" fill="none" xmlns="http://www.w3.org/2000/svg">
<rect width="50" height="50" rx="10" fill="#6A68E0"/>
<path d="M12.8431 28.501C9.76904 28.4681 7.25029 30.9333 7.21732 34.0074L7.17773 37.6986C7.16662 38.7341 6.3182 39.5645 5.28273 39.5534C4.24726 39.5423 3.41684 38.6939 3.42795 37.6584L3.60558 21.0968C3.66482 15.5743 8.18973 11.1454 13.7123 11.2047L14.2005 11.2099C17.3123 11.2433 19.7385 12.0636 21.4792 13.6709C23.2329 15.2784 24.0957 17.3906 24.0677 20.0076C24.0381 22.7679 23.1494 24.8874 21.4017 26.3661C19.6671 27.832 17.1918 28.5477 13.9759 28.5132L12.8431 28.501ZM7.36972 19.7992C7.33669 22.8787 9.8063 25.4019 12.8858 25.4349L14.0478 25.4474C16.0529 25.4689 17.5943 25.0166 18.672 24.0906C19.7498 23.1516 20.2983 21.7902 20.3175 20.0065C20.3356 18.3139 19.8163 16.9541 18.7596 15.927C17.7028 14.9 16.2437 14.357 14.3822 14.298L13.0054 14.2832C9.92592 14.2502 7.40275 16.7198 7.36972 19.7992Z" fill="white"/>
<path d="M37.7135 29.2414C38.9011 27.6833 41.1983 27.5512 42.5566 28.9629C43.1293 29.5581 43.4492 30.352 43.4492 31.178V37.625C43.4492 38.6605 44.2887 39.5 45.3242 39.5C46.3597 39.5 47.1992 38.6605 47.1992 37.625V12.9375C47.1992 11.902 46.3597 11.0625 45.3242 11.0625C44.2887 11.0625 43.4492 11.902 43.4492 12.9375V14.9591C43.4492 18.5317 39.0423 20.2208 36.6544 17.5635L31.317 11.6239C30.9959 11.2666 30.5381 11.0625 30.0577 11.0625C28.5959 11.0625 27.8212 12.7905 28.7937 13.8819L34.4549 20.2347C36.2078 22.2017 36.3221 25.1346 34.7277 27.2322L27.5848 36.6289C26.6896 37.8065 27.5295 39.5 29.0088 39.5C29.567 39.5 30.0931 39.2395 30.4314 38.7956L37.7135 29.2414Z" fill="white"/>
</svg>
